<?xml version="1.0" encoding="UTF-8" standalone="no"?><!-- Generator: Gravit.io --><svg xmlns="http://www.w3.org/2000/svg" xmlns:xlink="http://www.w3.org/1999/xlink" style="isolation:isolate" viewBox="0 0 60 60" width="60pt" height="60pt"><defs><clipPath id="_clipPath_2bC4Uq3gm5P7DGDnEBh1sGquzJ0qJ7Dr"><rect width="60" height="60"/></clipPath></defs><g clip-path="url(#_clipPath_2bC4Uq3gm5P7DGDnEBh1sGquzJ0qJ7Dr)"><g><circle vector-effect="non-scaling-stroke" cx="30" cy="30" r="28.5" fill="rgb(51,51,51)"/><path d=" M 30 3 C 44.912 3 57 15.088 57 30 C 57 44.912 44.912 57 30 57 C 15.088 57 3 44.912 3 30 C 3 15.088 15.088 3 30 3 Z  M 30 0 C 13.431 0 0 13.431 0 30 C 0 46.569 13.431 60 30 60 C 46.569 60 60 46.569 60 30 C 60 13.431 46.569 0 30 0 Z " fill="rgb(255,255,255)"/><path d=" M 14 22.26 L 14 27.53 L 28.48 24 C 28.48 24 28.48 21.14 30.89 20.49 C 33.3 19.84 34.4 22.7 34.4 22.7 L 47.56 19.63 C 47.14 17.929 46.466 16.3 45.56 14.8 L 31.56 18.09 L 25.2 16.56 L 25.2 19.63 L 14 22.26 Z " fill="rgb(255,75,75)"/><path d=" M 14 30.6 L 14 35.86 L 25.19 33.23 L 25.19 27.96 L 14 30.6 L 14 30.6 Z " fill="rgb(255,75,75)"/><path d=" M 14 38.93 L 14 44.2 L 25.19 41.56 L 25.19 44.2 L 31.55 44.2 L 31.55 40 C 31.55 40 46.9 37.18 48 22.7 L 42.52 24 C 42.52 24 42.3 30.8 32.65 34.53 L 14 38.93 Z " fill="rgb(255,75,75)"/></g></g></svg>