<?xml version="1.0" encoding="utf-8"?>
<!-- Svg Vector Icons : http://www.onlinewebfonts.com/icon -->
<!DOCTYPE svg PUBLIC "-//W3C//DTD SVG 1.1//EN" "http://www.w3.org/Graphics/SVG/1.1/DTD/svg11.dtd">
<svg version="1.1" xmlns="http://www.w3.org/2000/svg" xmlns:xlink="http://www.w3.org/1999/xlink" x="0px" y="0px" viewBox="0 0 1000 1000" enable-background="new 0 0 1000 1000" xml:space="preserve">
<metadata> Svg Vector Icons : http://www.onlinewebfonts.com/icon </metadata>
<g><path d="M836.3,759.5c-23,3.8-46.4,5.7-70.2,5.7c-77.5,0-149.2-19.2-215.1-57.5c-66-38.3-118.1-90.4-156.4-156.4c-38.3-66-57.5-137.7-57.5-215.1c0-81.7,22.1-157.7,66.4-227.9c-85.5,25.5-155.5,74.3-209.7,146.2c-54.3,71.9-81.4,153.6-81.4,245.1c0,55.3,10.9,108.2,32.6,158.6s50.8,93.8,87.1,130.2s79.8,65.4,130.2,87.1c50.4,21.7,103.3,32.6,158.6,32.6c61.3,0,119.5-13.1,174.6-39.3C750.6,842.8,797.5,806.4,836.3,759.5z M965.9,705.3c-40,86.4-100.3,155.4-181,207.2c-80.7,51.7-168.6,77.6-264,77.6c-66.4,0-129.8-13-190.2-38.9c-60.4-26-112.6-60.9-156.4-104.7S95.5,750.4,69.5,690c-26-60.4-38.9-123.8-38.9-190.2c0-65.1,12.2-127.4,36.7-186.7c24.5-59.4,57.7-110.8,99.6-154.2c41.9-43.4,92-78.4,150.3-105c58.3-26.6,120-41.2,185.1-43.7c18.7-0.9,31.7,7.4,38.9,24.9c7.7,17.4,4.5,32.8-9.6,46c-36.6,33.2-64.6,71.8-83.9,115.9c-19.4,44-29,90.5-29,139.5c0,63,15.5,121.1,46.6,174.3c31.1,53.2,73.2,95.3,126.4,126.4C644.9,668,703,683.6,766,683.6c50.2,0,98.7-10.9,145.6-32.6c17.4-7.7,32.8-4.9,46,8.3c6,6,9.7,13.2,11.2,21.7C970.2,689.5,969.3,697.6,965.9,705.3L965.9,705.3z"/></g>
</svg>