<?xml version="1.0" encoding="utf-8"?>
<!-- Generator: Adobe Illustrator 18.0.0, SVG Export Plug-In . SVG Version: 6.00 Build 0)  -->
<!DOCTYPE svg PUBLIC "-//W3C//DTD SVG 1.1//EN" "http://www.w3.org/Graphics/SVG/1.1/DTD/svg11.dtd">
<svg xmlns="http://www.w3.org/2000/svg" xmlns:xlink="http://www.w3.org/1999/xlink" version="1.1" id="Слой_1" x="0px" y="0px" viewBox="0 185.7 1024 364.5" enable-background="new 0 185.7 1024 364.5" xml:space="preserve">
<path fill="#000000" stroke="" stroke-width="2" stroke-linecap="round" stroke-linejoin="round" stroke-miterlimit="10" d="  M4,205.8v330.4h1019V205.8H4z M845.4,312.2c0,4.6-3.7,8.3-8.3,8.3h-22.7c-4.6,0-8.3-3.7-8.3-8.3v-23.7c0-4.6,3.7-8.3,8.3-8.3h22.7  c4.6,0,8.3,3.7,8.3,8.3V312.2z M845.4,356.5c0,4.6-3.7,8.3-8.3,8.3h-22.7c-4.6,0-8.3-3.7-8.3-8.3v-23.7c0-4.6,3.7-8.3,8.3-8.3h22.7  c4.6,0,8.3,3.7,8.3,8.3V356.5z M845.4,399.9c0,4.6-3.7,8.3-8.3,8.3h-22.7c-4.6,0-8.3-3.7-8.3-8.3v-23.7c0-4.6,3.7-8.3,8.3-8.3h22.7  c4.6,0,8.3,3.7,8.3,8.3V399.9z M845.4,444.3c0,4.6-3.7,8.3-8.3,8.3h-22.7c-4.6,0-8.3-3.7-8.3-8.3v-23.7c0-4.6,3.7-8.3,8.3-8.3h22.7  c4.6,0,8.3,3.7,8.3,8.3V444.3z M595.6,257.4c0,4.6-3.7,8.3-8.3,8.3h-22.7c-4.6,0-8.3-3.7-8.3-8.3v-23.7c0-4.6,3.7-8.3,8.3-8.3h22.7  c4.6,0,8.3,3.7,8.3,8.3V257.4z M171.3,397.8c0,4.6-3.6,8.3-8.1,8.3h-22.1c-4.5,0-8.1-3.7-8.1-8.3v-23.7c0-4.6,3.6-8.3,8.1-8.3h22.1  c4.5,0,8.1,3.7,8.1,8.3V397.8z M145.4,355.5c0,4.6-3.6,8.3-8.1,8.3h-22.1c-4.5,0-8.1-3.7-8.1-8.3v-23.7c0-4.6,3.6-8.3,8.1-8.3h22.1  c4.5,0,8.1,3.7,8.1,8.3V355.5z M187.8,355.5c0,4.6-3.6,8.3-8.1,8.3h-22.1c-4.5,0-8.1-3.7-8.1-8.3v-23.7c0-4.6,3.6-8.3,8.1-8.3h22.1  c4.5,0,8.1,3.7,8.1,8.3V355.5z M187.8,441.2c0,4.6-3.6,8.3-8.1,8.3h-22.1c-4.5,0-8.1-3.7-8.1-8.3v-23.7c0-4.6,3.6-8.3,8.1-8.3h22.1  c4.5,0,8.1,3.7,8.1,8.3V441.2z M214.6,397.8c0,4.6-3.6,8.3-8.1,8.3h-22.1c-4.5,0-8.1-3.7-8.1-8.3v-23.7c0-4.6,3.6-8.3,8.1-8.3h22.1  c4.5,0,8.1,3.7,8.1,8.3V397.8z M231.1,355.5c0,4.6-3.6,8.3-8.1,8.3H201c-4.5,0-8.1-3.7-8.1-8.3v-23.7c0-4.6,3.6-8.3,8.1-8.3h22.1  c4.5,0,8.1,3.7,8.1,8.3V355.5z M231.1,441.2c0,4.6-3.6,8.3-8.1,8.3H201c-4.5,0-8.1-3.7-8.1-8.3v-23.7c0-4.6,3.6-8.3,8.1-8.3h22.1  c4.5,0,8.1,3.7,8.1,8.3V441.2z M258,397.8c0,4.6-3.6,8.3-8.1,8.3h-22.1c-4.5,0-8.1-3.7-8.1-8.3v-23.7c0-4.6,3.6-8.3,8.1-8.3h22.1  c4.5,0,8.1,3.7,8.1,8.3V397.8z M429.4,311.1c0,4.6-3.6,8.3-8.1,8.3h-22.1c-4.5,0-8.1-3.7-8.1-8.3v-23.7c0-4.6,3.6-8.3,8.1-8.3h22.1  c4.5,0,8.1,3.7,8.1,8.3V311.1z M446.9,355.5c0,4.6-3.6,8.3-8.1,8.3h-22.1c-4.5,0-8.1-3.7-8.1-8.3v-23.7c0-4.6,3.6-8.3,8.1-8.3h22.1  c4.5,0,8.1,3.7,8.1,8.3V355.5z M403.5,355.5c0,4.6-3.6,8.3-8.1,8.3h-22.1c-4.5,0-8.1-3.7-8.1-8.3v-23.7c0-4.6,3.6-8.3,8.1-8.3h22.1  c4.5,0,8.1,3.7,8.1,8.3V355.5z M386,311.1c0,4.6-3.6,8.3-8.1,8.3h-22.1c-4.5,0-8.1-3.7-8.1-8.3v-23.7c0-4.6,3.6-8.3,8.1-8.3h22.1  c4.5,0,8.1,3.7,8.1,8.3V311.1z M360.2,355.5c0,4.6-3.6,8.3-8.1,8.3H330c-4.5,0-8.1-3.7-8.1-8.3v-23.7c0-4.6,3.6-8.3,8.1-8.3h22.1  c4.5,0,8.1,3.7,8.1,8.3V355.5z M342.6,311.1c0,4.6-3.6,8.3-8.1,8.3h-22.1c-4.5,0-8.1-3.7-8.1-8.3v-23.7c0-4.6,3.6-8.3,8.1-8.3h22.1  c4.5,0,8.1,3.7,8.1,8.3V311.1z M317.9,355.5c0,4.6-3.6,8.3-8.1,8.3h-22.1c-4.5,0-8.1-3.7-8.1-8.3v-23.7c0-4.6,3.6-8.3,8.1-8.3h22.1  c4.5,0,8.1,3.7,8.1,8.3V355.5z M300.3,311.1c0,4.6-3.6,8.3-8.1,8.3h-22.1c-4.5,0-8.1-3.7-8.1-8.3v-23.7c0-4.6,3.6-8.3,8.1-8.3h22.1  c4.5,0,8.1,3.7,8.1,8.3V311.1z M274.5,355.5c0,4.6-3.6,8.3-8.1,8.3h-22.1c-4.5,0-8.1-3.7-8.1-8.3v-23.7c0-4.6,3.6-8.3,8.1-8.3h22.1  c4.5,0,8.1,3.7,8.1,8.3V355.5z M274.5,441.2c0,4.6-3.6,8.3-8.1,8.3h-22.1c-4.5,0-8.1-3.7-8.1-8.3v-23.7c0-4.6,3.6-8.3,8.1-8.3h22.1  c4.5,0,8.1,3.7,8.1,8.3V441.2z M301.3,397.8c0,4.6-3.6,8.3-8.1,8.3h-22.1c-4.5,0-8.1-3.7-8.1-8.3v-23.7c0-4.6,3.6-8.3,8.1-8.3h22.1  c4.5,0,8.1,3.7,8.1,8.3V397.8z M317.9,441.2c0,4.6-3.6,8.3-8.1,8.3h-22.1c-4.5,0-8.1-3.7-8.1-8.3v-23.7c0-4.6,3.6-8.3,8.1-8.3h22.1  c4.5,0,8.1,3.7,8.1,8.3V441.2z M343.7,397.8c0,4.6-3.6,8.3-8.1,8.3h-22.1c-4.5,0-8.1-3.7-8.1-8.3v-23.7c0-4.6,3.6-8.3,8.1-8.3h22.1  c4.5,0,8.1,3.7,8.1,8.3V397.8z M360.2,441.2c0,4.6-3.6,8.3-8.1,8.3H330c-4.5,0-8.1-3.7-8.1-8.3v-23.7c0-4.6,3.6-8.3,8.1-8.3h22.1  c4.5,0,8.1,3.7,8.1,8.3V441.2z M387,397.8c0,4.6-3.6,8.3-8.1,8.3h-22.1c-4.5,0-8.1-3.7-8.1-8.3v-23.7c0-4.6,3.6-8.3,8.1-8.3H379  c4.5,0,8.1,3.7,8.1,8.3V397.8z M403.5,441.2c0,4.6-3.6,8.3-8.1,8.3h-22.1c-4.5,0-8.1-3.7-8.1-8.3v-23.7c0-4.6,3.6-8.3,8.1-8.3h22.1  c4.5,0,8.1,3.7,8.1,8.3V441.2z M430.4,397.8c0,4.6-3.6,8.3-8.1,8.3h-22.1c-4.5,0-8.1-3.7-8.1-8.3v-23.7c0-4.6,3.6-8.3,8.1-8.3h22.1  c4.5,0,8.1,3.7,8.1,8.3V397.8z M446.9,441.2c0,4.6-3.6,8.3-8.1,8.3h-22.1c-4.5,0-8.1-3.7-8.1-8.3v-23.7c0-4.6,3.6-8.3,8.1-8.3h22.1  c4.5,0,8.1,3.7,8.1,8.3V441.2z M473.8,397.8c0,4.6-3.6,8.3-8.1,8.3h-22.1c-4.5,0-8.1-3.7-8.1-8.3v-23.7c0-4.6,3.6-8.3,8.1-8.3h22.1  c4.5,0,8.1,3.7,8.1,8.3V397.8z M490.3,355.5c0,4.6-3.6,8.3-8.1,8.3h-22.1c-4.5,0-8.1-3.7-8.1-8.3v-23.7c0-4.6,3.6-8.3,8.1-8.3h22.1  c4.5,0,8.1,3.7,8.1,8.3V355.5z M490.3,441.2c0,4.6-3.6,8.3-8.1,8.3h-22.1c-4.5,0-8.1-3.7-8.1-8.3v-23.7c0-4.6,3.6-8.3,8.1-8.3h22.1  c4.5,0,8.1,3.7,8.1,8.3V441.2z M516.1,397.8c0,4.6-3.6,8.3-8.1,8.3h-22.1c-4.5,0-8.1-3.7-8.1-8.3v-23.7c0-4.6,3.6-8.3,8.1-8.3H508  c4.5,0,8.1,3.7,8.1,8.3V397.8z M532.6,355.5c0,4.6-3.6,8.3-8.1,8.3h-22.1c-4.5,0-8.1-3.7-8.1-8.3v-23.7c0-4.6,3.6-8.3,8.1-8.3h22.1  c4.5,0,8.1,3.7,8.1,8.3V355.5z M532.6,441.2c0,4.6-3.6,8.3-8.1,8.3h-22.1c-4.5,0-8.1-3.7-8.1-8.3v-23.7c0-4.6,3.6-8.3,8.1-8.3h22.1  c4.5,0,8.1,3.7,8.1,8.3V441.2z M559.4,397.8c0,4.6-3.6,8.3-8.1,8.3h-22.1c-4.5,0-8.1-3.7-8.1-8.3v-23.7c0-4.6,3.6-8.3,8.1-8.3h22.1  c4.5,0,8.1,3.7,8.1,8.3V397.8z M576,355.5c0,4.6-3.6,8.3-8.1,8.3h-22.1c-4.5,0-8.1-3.7-8.1-8.3v-23.7c0-4.6,3.6-8.3,8.1-8.3h22.1  c4.5,0,8.1,3.7,8.1,8.3V355.5z M558.4,311.1c0,4.6-3.6,8.3-8.1,8.3h-22.1c-4.5,0-8.1-3.7-8.1-8.3v-23.7c0-4.6,3.6-8.3,8.1-8.3h22.1  c4.5,0,8.1,3.7,8.1,8.3V311.1z M551.2,257.4c0,4.6-3.7,8.3-8.3,8.3h-22.7c-4.6,0-8.3-3.7-8.3-8.3v-23.7c0-4.6,3.7-8.3,8.3-8.3h22.7  c4.6,0,8.3,3.7,8.3,8.3V257.4z M515,311.1c0,4.6-3.6,8.3-8.1,8.3h-22.1c-4.5,0-8.1-3.7-8.1-8.3v-23.7c0-4.6,3.6-8.3,8.1-8.3H507  c4.5,0,8.1,3.7,8.1,8.3V311.1z M505.8,257.4c0,4.6-3.7,8.3-8.3,8.3h-22.7c-4.6,0-8.3-3.7-8.3-8.3v-23.7c0-4.6,3.7-8.3,8.3-8.3h22.7  c4.6,0,8.3,3.7,8.3,8.3V257.4z M472.7,311.1c0,4.6-3.6,8.3-8.1,8.3h-22.1c-4.5,0-8.1-3.7-8.1-8.3v-23.7c0-4.6,3.6-8.3,8.1-8.3h22.1  c4.5,0,8.1,3.7,8.1,8.3V311.1z M454.1,257.4c0,4.6-3.7,8.3-8.3,8.3h-22.7c-4.6,0-8.3-3.7-8.3-8.3v-23.7c0-4.6,3.7-8.3,8.3-8.3h22.7  c4.6,0,8.3,3.7,8.3,8.3V257.4z M410.8,257.4c0,4.6-3.7,8.3-8.3,8.3h-22.7c-4.6,0-8.3-3.7-8.3-8.3v-23.7c0-4.6,3.7-8.3,8.3-8.3h22.7  c4.6,0,8.3,3.7,8.3,8.3V257.4z M367.4,257.4c0,4.6-3.7,8.3-8.3,8.3h-22.7c-4.6,0-8.3-3.7-8.3-8.3v-23.7c0-4.6,3.7-8.3,8.3-8.3h22.7  c4.6,0,8.3,3.7,8.3,8.3V257.4z M324.1,257.4c0,4.6-3.7,8.3-8.3,8.3h-22.7c-4.6,0-8.3-3.7-8.3-8.3v-23.7c0-4.6,3.7-8.3,8.3-8.3h22.7  c4.6,0,8.3,3.7,8.3,8.3V257.4z M270.4,257.4c0,4.6-3.7,8.3-8.3,8.3h-22.7c-4.6,0-8.3-3.7-8.3-8.3v-23.7c0-4.6,3.7-8.3,8.3-8.3h22.7  c4.6,0,8.3,3.7,8.3,8.3V257.4z M256.9,311.1c0,4.6-3.6,8.3-8.1,8.3h-22.1c-4.5,0-8.1-3.7-8.1-8.3v-23.7c0-4.6,3.6-8.3,8.1-8.3h22.1  c4.5,0,8.1,3.7,8.1,8.3V311.1z M226,257.4c0,4.6-3.7,8.3-8.3,8.3H195c-4.6,0-8.3-3.7-8.3-8.3v-23.7c0-4.6,3.7-8.3,8.3-8.3h22.7  c4.6,0,8.3,3.7,8.3,8.3V257.4z M213.6,311.1c0,4.6-3.6,8.3-8.1,8.3h-22.1c-4.5,0-8.1-3.7-8.1-8.3v-23.7c0-4.6,3.6-8.3,8.1-8.3h22.1  c4.5,0,8.1,3.7,8.1,8.3V311.1z M182.6,257.4c0,4.6-3.7,8.3-8.3,8.3h-22.7c-4.6,0-8.3-3.7-8.3-8.3v-23.7c0-4.6,3.7-8.3,8.3-8.3h22.7  c4.6,0,8.3,3.7,8.3,8.3V257.4z M170.2,311.1c0,4.6-3.6,8.3-8.1,8.3h-22.1c-4.5,0-8.1-3.7-8.1-8.3v-23.7c0-4.6,3.6-8.3,8.1-8.3h22.1  c4.5,0,8.1,3.7,8.1,8.3V311.1z M138.2,257.4c0,4.6-3.7,8.3-8.3,8.3h-22.7c-4.6,0-8.3-3.7-8.3-8.3v-23.7c0-4.6,3.7-8.3,8.3-8.3H130  c4.6,0,8.3,3.7,8.3,8.3V257.4z M127.9,311.1c0,4.6-3.6,8.3-8.1,8.3H97.8c-4.5,0-8.1-3.7-8.1-8.3v-23.7c0-4.6,3.6-8.3,8.1-8.3h22.1  c4.5,0,8.1,3.7,8.1,8.3V311.1z M85.6,257.4c0,4.6-3.7,8.3-8.3,8.3H54.6c-4.6,0-8.3-3.7-8.3-8.3v-23.7c0-4.6,3.7-8.3,8.3-8.3h22.7  c4.6,0,8.3,3.7,8.3,8.3V257.4z M84.5,311.1c0,4.6-3.6,8.3-8.1,8.3H54.4c-4.5,0-8.1-3.7-8.1-8.3v-23.7c0-4.6,3.6-8.3,8.1-8.3h22.1  c4.5,0,8.1,3.7,8.1,8.3V311.1z M99,354.5c0,4.6-3.7,8.3-8.3,8.3H54.6c-4.6,0-8.3-3.7-8.3-8.3v-21.7c0-4.6,3.7-8.3,8.3-8.3h36.1  c4.6,0,8.3,3.7,8.3,8.3V354.5z M125.8,396.8c0,4.6-3.7,8.3-8.3,8.3h-63c-4.6,0-8.3-3.7-8.3-8.3v-21.7c0-4.6,3.7-8.3,8.3-8.3h63  c4.6,0,8.3,3.7,8.3,8.3V396.8z M99,441.2c0,4.6-3.7,8.3-8.3,8.3H54.6c-4.6,0-8.3-3.7-8.3-8.3v-21.7c0-4.6,3.7-8.3,8.3-8.3h36.1  c4.6,0,8.3,3.7,8.3,8.3V441.2z M114.5,485.6c0,4.6-3.7,8.3-8.3,8.3H54.6c-4.6,0-8.3-3.7-8.3-8.3v-21.7c0-4.6,3.7-8.3,8.3-8.3h51.6  c4.6,0,8.3,3.7,8.3,8.3V485.6z M145.4,441.2c0,4.6-3.6,8.3-8.1,8.3h-22.1c-4.5,0-8.1-3.7-8.1-8.3v-23.7c0-4.6,3.6-8.3,8.1-8.3h22.1  c4.5,0,8.1,3.7,8.1,8.3V441.2z M165.1,485.6c0,4.6-4,8.3-9,8.3h-25.3c-5,0-9-3.7-9-8.3v-23.7c0-4.6,4-8.3,9-8.3H156c5,0,9,3.7,9,8.3  V485.6z M213.6,485.6c0,4.6-4,8.3-9,8.3h-25.3c-5,0-9-3.7-9-8.3v-23.7c0-4.6,4-8.3,9-8.3h25.3c5,0,9,3.7,9,8.3V485.6z M466.5,484.6  c0,4.6-3.7,8.3-8.3,8.3H224.9c-4.6,0-8.3-3.7-8.3-8.3v-21.7c0-4.6,3.7-8.3,8.3-8.3h233.3c4.6,0,8.3,3.7,8.3,8.3V484.6z M515,485.6  c0,4.6-4,8.3-9,8.3h-25.3c-5,0-9-3.7-9-8.3v-23.7c0-4.6,4-8.3,9-8.3H506c5,0,9,3.7,9,8.3V485.6z M563.6,485.6c0,4.6-4,8.3-9,8.3  h-25.3c-5,0-9-3.7-9-8.3v-23.7c0-4.6,4-8.3,9-8.3h25.3c5,0,9,3.7,9,8.3V485.6z M576,441.2c0,4.6-3.6,8.3-8.1,8.3h-22.1  c-4.5,0-8.1-3.7-8.1-8.3v-23.7c0-4.6,3.6-8.3,8.1-8.3h22.1c4.5,0,8.1,3.7,8.1,8.3V441.2z M636.9,485.6c0,4.6-3.7,8.3-8.3,8.3H577  c-4.6,0-8.3-3.7-8.3-8.3v-21.7c0-4.6,3.7-8.3,8.3-8.3h51.6c4.6,0,8.3,3.7,8.3,8.3V485.6z M636.9,441.2c0,4.6-3.7,8.3-8.3,8.3h-36.1  c-4.6,0-8.3-3.7-8.3-8.3v-21.7c0-4.6,3.7-8.3,8.3-8.3h36.1c4.6,0,8.3,3.7,8.3,8.3V441.2z M636.9,359.1c0,4.5,0,10.8,0,13.9  s0,9.4,0,13.9v10.3c0,4.5-3.2,8.8-7.7,8.8h-54.7c-4.5,0-8.8-4.2-8.8-8.8v-21.7c0-4.5,4.2-7.7,8.8-7.7h2.1c4.5,0,7.7-4.2,7.7-8.8  v-25.8c0-4.5,4.2-7.7,8.8-7.7h36.1c4.5,0,7.7,3.2,7.7,7.7V359.1z M636.9,310.1c0,4.6-3.7,8.3-8.3,8.3H577c-4.6,0-8.3-3.7-8.3-8.3  v-21.7c0-4.6,3.7-8.3,8.3-8.3h51.6c4.6,0,8.3,3.7,8.3,8.3V310.1z M638.9,257.4c0,4.6-3.7,8.3-8.3,8.3H608c-4.6,0-8.3-3.7-8.3-8.3  v-23.7c0-4.6,3.7-8.3,8.3-8.3h22.7c4.6,0,8.3,3.7,8.3,8.3V257.4z M697.8,485.6c0,4.6-3.7,8.3-8.3,8.3h-22.7c-4.6,0-8.3-3.7-8.3-8.3  v-23.7c0-4.6,3.7-8.3,8.3-8.3h22.7c4.6,0,8.3,3.7,8.3,8.3V485.6z M697.8,356.5c0,4.6-3.7,8.3-8.3,8.3h-22.7c-4.6,0-8.3-3.7-8.3-8.3  v-23.7c0-4.6,3.7-8.3,8.3-8.3h22.7c4.6,0,8.3,3.7,8.3,8.3V356.5z M697.8,312.2c0,4.6-3.7,8.3-8.3,8.3h-22.7c-4.6,0-8.3-3.7-8.3-8.3  v-23.7c0-4.6,3.7-8.3,8.3-8.3h22.7c4.6,0,8.3,3.7,8.3,8.3V312.2z M697.8,257.4c0,4.6-3.7,8.3-8.3,8.3h-22.7c-4.6,0-8.3-3.7-8.3-8.3  v-23.7c0-4.6,3.7-8.3,8.3-8.3h22.7c4.6,0,8.3,3.7,8.3,8.3V257.4z M742.2,485.6c0,4.6-3.7,8.3-8.3,8.3h-22.7c-4.6,0-8.3-3.7-8.3-8.3  v-23.7c0-4.6,3.7-8.3,8.3-8.3h22.7c4.6,0,8.3,3.7,8.3,8.3V485.6z M742.2,440.2c0,4.6-3.7,8.3-8.3,8.3h-22.7c-4.6,0-8.3-3.7-8.3-8.3  v-23.7c0-4.6,3.7-8.3,8.3-8.3h22.7c4.6,0,8.3,3.7,8.3,8.3V440.2z M742.2,356.5c0,4.6-3.7,8.3-8.3,8.3h-22.7c-4.6,0-8.3-3.7-8.3-8.3  v-23.7c0-4.6,3.7-8.3,8.3-8.3h22.7c4.6,0,8.3,3.7,8.3,8.3V356.5z M742.2,312.2c0,4.6-3.7,8.3-8.3,8.3h-22.7c-4.6,0-8.3-3.7-8.3-8.3  v-23.7c0-4.6,3.7-8.3,8.3-8.3h22.7c4.6,0,8.3,3.7,8.3,8.3V312.2z M742.2,257.4c0,4.6-3.7,8.3-8.3,8.3h-22.7c-4.6,0-8.3-3.7-8.3-8.3  v-23.7c0-4.6,3.7-8.3,8.3-8.3h22.7c4.6,0,8.3,3.7,8.3,8.3V257.4z M786.6,485.6c0,4.6-3.7,8.3-8.3,8.3h-22.7c-4.6,0-8.3-3.7-8.3-8.3  v-23.7c0-4.6,3.7-8.3,8.3-8.3h22.7c4.6,0,8.3,3.7,8.3,8.3V485.6z M786.6,356.5c0,4.6-3.7,8.3-8.3,8.3h-22.7c-4.6,0-8.3-3.7-8.3-8.3  v-23.7c0-4.6,3.7-8.3,8.3-8.3h22.7c4.6,0,8.3,3.7,8.3,8.3V356.5z M786.6,312.2c0,4.6-3.7,8.3-8.3,8.3h-22.7c-4.6,0-8.3-3.7-8.3-8.3  v-23.7c0-4.6,3.7-8.3,8.3-8.3h22.7c4.6,0,8.3,3.7,8.3,8.3V312.2z M786.6,257.4c0,4.6-3.7,8.3-8.3,8.3h-22.7c-4.6,0-8.3-3.7-8.3-8.3  v-23.7c0-4.6,3.7-8.3,8.3-8.3h22.7c4.6,0,8.3,3.7,8.3,8.3V257.4z M887.8,487.7c0,4.6-3.7,8.3-8.2,8.3h-65.2c-4.5,0-8.2-3.7-8.2-8.3  V465c0-4.6,3.7-8.3,8.2-8.3h65.2c4.5,0,8.2,3.7,8.2,8.3V487.7z M889.8,444.3c0,4.6-3.7,8.3-8.3,8.3h-22.7c-4.6,0-8.3-3.7-8.3-8.3  v-23.7c0-4.6,3.7-8.3,8.3-8.3h22.7c4.6,0,8.3,3.7,8.3,8.3V444.3z M889.8,399.9c0,4.6-3.7,8.3-8.3,8.3h-22.7c-4.6,0-8.3-3.7-8.3-8.3  v-23.7c0-4.6,3.7-8.3,8.3-8.3h22.7c4.6,0,8.3,3.7,8.3,8.3V399.9z M889.8,356.5c0,4.6-3.7,8.3-8.3,8.3h-22.7c-4.6,0-8.3-3.7-8.3-8.3  v-23.7c0-4.6,3.7-8.3,8.3-8.3h22.7c4.6,0,8.3,3.7,8.3,8.3V356.5z M889.8,312.2c0,4.6-3.7,8.3-8.3,8.3h-22.7c-4.6,0-8.3-3.7-8.3-8.3  v-23.7c0-4.6,3.7-8.3,8.3-8.3h22.7c4.6,0,8.3,3.7,8.3,8.3V312.2z M934.2,487.7c0,4.6-3.7,8.3-8.3,8.3h-22.7c-4.6,0-8.3-3.7-8.3-8.3  v-23.7c0-4.6,3.7-8.3,8.3-8.3H926c4.6,0,8.3,3.7,8.3,8.3V487.7z M934.2,444.3c0,4.6-3.7,8.3-8.3,8.3h-22.7c-4.6,0-8.3-3.7-8.3-8.3  v-23.7c0-4.6,3.7-8.3,8.3-8.3H926c4.6,0,8.3,3.7,8.3,8.3V444.3z M934.2,399.9c0,4.6-3.7,8.3-8.3,8.3h-22.7c-4.6,0-8.3-3.7-8.3-8.3  v-23.7c0-4.6,3.7-8.3,8.3-8.3H926c4.6,0,8.3,3.7,8.3,8.3V399.9z M934.2,356.5c0,4.6-3.7,8.3-8.3,8.3h-22.7c-4.6,0-8.3-3.7-8.3-8.3  v-23.7c0-4.6,3.7-8.3,8.3-8.3H926c4.6,0,8.3,3.7,8.3,8.3V356.5z M934.2,312.2c0,4.6-3.7,8.3-8.3,8.3h-22.7c-4.6,0-8.3-3.7-8.3-8.3  v-23.7c0-4.6,3.7-8.3,8.3-8.3H926c4.6,0,8.3,3.7,8.3,8.3V312.2z M977.6,487.7c0,4.6-3.7,8.3-8.3,8.3h-22.7c-4.6,0-8.3-3.7-8.3-8.3  v-66.1c0-4.6,3.7-8.3,8.3-8.3h22.7c4.6,0,8.3,3.7,8.3,8.3V487.7z M977.6,400.9c0,4.6-3.7,8.3-8.3,8.3h-22.7c-4.6,0-8.3-3.7-8.3-8.3  v-67.1c0-4.6,3.7-8.3,8.3-8.3h22.7c4.6,0,8.3,3.7,8.3,8.3V400.9z M977.6,312.2c0,4.6-3.7,8.3-8.3,8.3h-22.7c-4.6,0-8.3-3.7-8.3-8.3  v-23.7c0-4.6,3.7-8.3,8.3-8.3h22.7c4.6,0,8.3,3.7,8.3,8.3V312.2z"/>
</svg>
