<?xml version="1.0" encoding="UTF-8" standalone="no"?>
<!-- Created with Inkscape (http://www.inkscape.org/) -->

<svg
   id="svg4152"
   version="1.1"
   inkscape:version="1.1.1 (3bf5ae0d25, 2021-09-20)"
   width="64"
   height="64"
   xml:space="preserve"
   sodipodi:docname="retroarch.svg"
   inkscape:export-filename="/Users/margetts/Desktop/Icon Workshop/Monochrome Plus June/png/Libretro - Pad.png"
   inkscape:export-xdpi="360"
   inkscape:export-ydpi="360"
   xmlns:inkscape="http://www.inkscape.org/namespaces/inkscape"
   xmlns:sodipodi="http://sodipodi.sourceforge.net/DTD/sodipodi-0.dtd"
   xmlns="http://www.w3.org/2000/svg"
   xmlns:svg="http://www.w3.org/2000/svg"
   xmlns:rdf="http://www.w3.org/1999/02/22-rdf-syntax-ns#"
   xmlns:cc="http://creativecommons.org/ns#"
   xmlns:dc="http://purl.org/dc/elements/1.1/"><metadata
     id="metadata4158"><rdf:RDF><cc:Work
         rdf:about=""><dc:format>image/svg+xml</dc:format><dc:type
           rdf:resource="http://purl.org/dc/dcmitype/StillImage" /></cc:Work></rdf:RDF></metadata><defs
     id="defs4156"><clipPath
       clipPathUnits="userSpaceOnUse"
       id="clipPath4166"><path
         d="M 0,64 64,64 64,0 0,0 0,64 z"
         id="path4168"
         inkscape:connector-curvature="0" /></clipPath></defs><sodipodi:namedview
     pagecolor="#808080"
     bordercolor="#666666"
     borderopacity="1"
     objecttolerance="10"
     gridtolerance="10"
     guidetolerance="10"
     inkscape:pageopacity="0"
     inkscape:pageshadow="2"
     inkscape:window-width="1440"
     inkscape:window-height="762"
     id="namedview4154"
     showgrid="true"
     inkscape:zoom="7.5999999"
     inkscape:cx="21.184211"
     inkscape:cy="33.355264"
     inkscape:window-x="0"
     inkscape:window-y="0"
     inkscape:window-maximized="1"
     inkscape:current-layer="g4160"
     inkscape:pagecheckerboard="0"><inkscape:grid
       type="xygrid"
       id="grid836" /></sodipodi:namedview><g
     id="g4160"
     inkscape:groupmode="layer"
     inkscape:label="Libretro - Pad"
     transform="matrix(1.25,0,0,-1.25,0,64)"><path
       style="fill:#ffffff;fill-opacity:1;fill-rule:nonzero;stroke:none;stroke-width:1.19999"
       d="M 14.045313,36.451768 C 7.1724232,36.451768 1.6,30.879205 1.6,24.006455 v -3.555468 c 0,-4.418577 3.5805528,-7.999219 7.9992192,-7.999219 H 21.496094 c 0.336889,0 0.644308,0.19086 0.794531,0.492187 l 0.398438,0.794532 c 0.150222,0.301326 0.457642,0.492187 0.794531,0.492187 h 4.232812 c 0.336889,0 0.644309,-0.190861 0.794531,-0.492187 l 0.398438,-0.794532 c 0.150223,-0.301327 0.457644,-0.492187 0.794531,-0.492187 h 11.896875 c 4.418666,0 7.999219,3.580642 7.999219,7.999219 v 3.555468 c 0,6.87275 -5.572425,12.445313 -12.445313,12.445313 z m 26.557031,-4.2 c 1.325241,0 2.397656,-1.074033 2.397656,-2.4 0,-1.325969 -1.072415,-2.4 -2.397656,-2.4 -1.32524,0 -2.402344,1.074031 -2.402344,2.4 0,1.325967 1.077104,2.4 2.402344,2.4 z M 9.25,31.651768 h 2.7 c 0.248406,0 0.45,-0.201599 0.45,-0.45 v -3.15 h 3.152344 c 0.248407,0 0.447657,-0.201599 0.447656,-0.45 v -2.702344 c 0,-0.248401 -0.199249,-0.447656 -0.447656,-0.447656 H 12.4 v -3.152344 c 0,-0.248404 -0.201594,-0.447656 -0.45,-0.447656 h -2.7 c -0.248406,0 -0.45,0.199252 -0.45,0.447656 v 3.152344 H 5.65 c -0.248406,0 -0.45,0.199255 -0.45,0.447656 v 2.702344 c 0,0.248401 0.201594,0.45 0.45,0.45 H 8.8 v 3.15 c 0,0.248401 0.201594,0.45 0.45,0.45 z m 27.15,-3.6 c 1.325968,0 2.4,-1.072415 2.4,-2.397657 0,-1.32524 -1.074034,-2.402343 -2.4,-2.402343 -1.325969,0 -2.4,1.077103 -2.4,2.402343 0,1.325242 1.074031,2.397657 2.4,2.397657 z m 8.4,0 c 1.325966,0 2.4,-1.072415 2.4,-2.397657 0,-1.32524 -1.074034,-2.402343 -2.4,-2.402343 -1.325969,0 -2.4,1.077103 -2.4,2.402343 0,1.325242 1.074031,2.397657 2.4,2.397657 z m -24,-2.4 h 2.397656 c 0.663619,0 1.202344,-0.540377 1.202344,-1.202344 0,-0.663165 -0.538725,-1.197656 -1.202344,-1.197656 H 20.8 c -0.663615,0 -1.2,0.534491 -1.2,1.197656 0,0.661967 0.536385,1.202344 1.2,1.202344 z m 7.2,0 h 2.397656 c 0.663619,0 1.202344,-0.540377 1.202344,-1.202344 0,-0.663165 -0.538725,-1.197656 -1.202344,-1.197656 H 28 c -0.663615,0 -1.2,0.534491 -1.2,1.197656 0,0.661967 0.536385,1.202344 1.2,1.202344 z m 12.602344,-1.8 c 1.325241,0 2.397656,-1.074032 2.397656,-2.4 0,-1.325968 -1.072415,-2.4 -2.397656,-2.4 -1.32524,0 -2.402344,1.074032 -2.402344,2.4 0,1.325968 1.077104,2.4 2.402344,2.4 z m -21.002344,-3 c 1.988346,-1.2e-4 3.600122,-1.611895 3.6,-3.6 1.24e-4,-1.988103 -1.611654,-3.599879 -3.6,-3.6 -1.988346,1.21e-4 -3.600121,1.611897 -3.6,3.6 -1.21e-4,1.988105 1.611654,3.59988 3.6,3.6 z m 12,0 c 1.988346,-1.2e-4 3.600122,-1.611895 3.6,-3.6 1.22e-4,-1.988103 -1.611654,-3.599879 -3.6,-3.6 -1.988346,1.21e-4 -3.600121,1.611897 -3.6,3.6 -1.21e-4,1.988105 1.611654,3.59988 3.6,3.6 z"
       id="path4180" /><path
       inkscape:connector-curvature="0"
       id="path4184"
       style="fill:#ffffff;fill-opacity:1;fill-rule:nonzero;stroke:none;stroke-width:1.19999"
       d="m 12.4,26.251768 c 0,-0.9948 -0.805201,-1.8 -1.800004,-1.8 -0.994796,0 -1.799996,0.8052 -1.799996,1.8 0,0.9948 0.8052,1.8 1.799996,1.8 0.994803,0 1.800004,-0.8052 1.800004,-1.8" /><path
       inkscape:connector-curvature="0"
       id="path4188"
       style="fill:#ffffff;fill-opacity:1;fill-rule:nonzero;stroke:none;stroke-width:1.19999"
       d="m 13.6,37.651768 v 0.437325 c 0,0.25244 -0.210666,0.46399 -0.463111,0.451546 C 9.826666,38.368198 6.805333,37.180666 4.438222,35.171818 4.0435555,34.836713 3.822223,34.341613 3.822223,33.8234 v -0.470212 c 2.437332,2.635502 5.9128878,4.29858 9.777777,4.29858" /><path
       inkscape:connector-curvature="0"
       id="path4192"
       style="fill:#ffffff;fill-opacity:1;fill-rule:nonzero;stroke:none;stroke-width:1.19999"
       d="m 19.6,37.651768 h -4.8 v 0.444435 c 0,0.24533 0.179201,0.444436 0.400001,0.444436 H 19.2 c 0.220799,0 0.4,-0.199106 0.4,-0.444436 z" /><path
       style="opacity:0.99;vector-effect:none;fill:#ffffff;fill-opacity:1;stroke:none;stroke-width:4.8;stroke-linecap:butt;stroke-linejoin:miter;stroke-miterlimit:4;stroke-dasharray:none;stroke-dashoffset:0;stroke-opacity:1"
       d="m 31.6,19.651766 c -1.32534,0 -2.4,-1.07516 -2.4,-2.401055 0,-1.325897 1.07466,-2.398945 2.4,-2.398945 1.325344,0 2.4,1.073049 2.4,2.398945 0,1.325898 -1.074656,2.401055 -2.4,2.401055 z"
       id="path889"
       inkscape:connector-curvature="0" /><path
       inkscape:connector-curvature="0"
       id="path916"
       d="m 19.6,19.651766 c -1.32534,0 -2.4,-1.07516 -2.4,-2.401055 0,-1.325897 1.07466,-2.398945 2.4,-2.398945 1.325342,0 2.4,1.073049 2.4,2.398945 0,1.325898 -1.074658,2.401055 -2.4,2.401055 z"
       style="opacity:0.99;vector-effect:none;fill:#ffffff;fill-opacity:1;stroke:none;stroke-width:4.8;stroke-linecap:butt;stroke-linejoin:miter;stroke-miterlimit:4;stroke-dasharray:none;stroke-dashoffset:0;stroke-opacity:1" /><path
       d="m 37.6,37.651768 v 0.437325 c 0,0.25244 0.210666,0.46399 0.463111,0.451546 3.310223,-0.172441 6.331557,-1.359973 8.698667,-3.368821 0.394667,-0.335105 0.616,-0.830205 0.616,-1.348418 V 33.353188 C 44.940445,35.98869 41.464889,37.651768 37.6,37.651768"
       style="fill:#ffffff;fill-opacity:1;fill-rule:nonzero;stroke:none;stroke-width:1.19999"
       id="path926"
       inkscape:connector-curvature="0" /><path
       d="m 31.6,37.651768 h 4.8 v 0.444435 c 0,0.24533 -0.179201,0.444436 -0.400001,0.444436 H 32 c -0.220799,0 -0.4,-0.199106 -0.4,-0.444436 z"
       style="fill:#ffffff;fill-opacity:1;fill-rule:nonzero;stroke:none;stroke-width:1.19999"
       id="path928"
       inkscape:connector-curvature="0" /><path
       sodipodi:nodetypes="csssssccssccssssc"
       d="M 82.104232,31.199676 H 66.696824 c -4.581926,0 -8.296296,-3.714295 -8.296296,-8.296128 v -2.370322 c 0,-2.945718 2.387556,-5.333226 5.333333,-5.333226 h 7.930074 c 0.224593,0 0.42963,0.126813 0.529778,0.327698 l 0.265482,0.529767 c 0.100148,0.200884 0.305185,0.327697 0.529777,0.327697 h 2.823111 c 0.224593,0 0.42963,-0.126813 0.529778,-0.327697 l 0.265482,-0.529767 C 76.707491,15.326813 76.912528,15.2 77.13712,15.2 h 7.930075 c 2.945777,0 5.333333,2.387508 5.333333,5.333226 v 2.370322 c 0,4.581833 -3.714371,8.296128 -8.296296,8.296128"
       style="fill:#ffffff;fill-opacity:1;fill-rule:nonzero;stroke:none;stroke-width:0.79999191"
       id="path930"
       inkscape:connector-curvature="0" /><path
       style="opacity:0.98999999;vector-effect:none;fill:#ff0000;fill-opacity:1;stroke:none;stroke-width:3.19999981;stroke-linecap:butt;stroke-linejoin:miter;stroke-miterlimit:4;stroke-dasharray:none;stroke-dashoffset:0;stroke-opacity:1"
       d="M 76,24 C 75.55759,24 75.200528,23.640257 75.200528,23.198946 75.200528,22.756836 75.55759,22.4 76,22.4 h 1.598946 c 0.442412,0 0.801582,0.356836 0.801582,0.798946 0,0.441311 -0.35917,0.801054 -0.801582,0.801054 z"
       id="path932"
       inkscape:connector-curvature="0" /><path
       inkscape:connector-curvature="0"
       id="path934"
       d="m 87.200528,22.4 c 0.883978,0 1.6,0.717349 1.6,1.600843 0,0.883494 -0.716022,1.599157 -1.6,1.599157 -0.883979,0 -1.6,-0.715663 -1.6,-1.599157 0,-0.883494 0.716021,-1.600843 1.6,-1.600843 z"
       style="opacity:0.98999999;vector-effect:none;fill:#ff0000;fill-opacity:1;stroke:none;stroke-width:3.20000005;stroke-linecap:butt;stroke-linejoin:miter;stroke-miterlimit:4;stroke-dasharray:none;stroke-dashoffset:0;stroke-opacity:1" /><path
       style="opacity:0.98999999;vector-effect:none;fill:#ff0000;fill-opacity:1;stroke:none;stroke-width:3.20000005;stroke-linecap:butt;stroke-linejoin:miter;stroke-miterlimit:4;stroke-dasharray:none;stroke-dashoffset:0;stroke-opacity:1"
       d="m 81.600528,22.4 c 0.883978,0 1.6,0.717349 1.6,1.600843 0,0.883494 -0.716022,1.599157 -1.6,1.599157 -0.883979,0 -1.6,-0.715663 -1.6,-1.599157 0,-0.883494 0.716021,-1.600843 1.6,-1.600843 z"
       id="path936"
       inkscape:connector-curvature="0" /><path
       style="opacity:0.98999999;vector-effect:none;fill:#ff0000;fill-opacity:1;stroke:none;stroke-width:3.20000005;stroke-linecap:butt;stroke-linejoin:miter;stroke-miterlimit:4;stroke-dasharray:none;stroke-dashoffset:0;stroke-opacity:1"
       d="m 82.800527,21.2 c 0,-0.883978 0.717349,-1.6 1.600843,-1.6 0.883494,0 1.599157,0.716022 1.599157,1.6 0,0.883979 -0.715663,1.6 -1.599157,1.6 -0.883494,0 -1.600843,-0.716021 -1.600843,-1.6 z"
       id="path938"
       inkscape:connector-curvature="0" /><path
       inkscape:connector-curvature="0"
       id="path940"
       d="m 82.800527,26.800001 c 0,-0.883979 0.717349,-1.600001 1.600843,-1.600001 0.883494,0 1.599157,0.716022 1.599157,1.600001 0,0.883978 -0.715663,1.599999 -1.599157,1.599999 -0.883494,0 -1.600843,-0.716021 -1.600843,-1.599999 z"
       style="opacity:0.98999999;vector-effect:none;fill:#ff0000;fill-opacity:1;stroke:none;stroke-width:3.20000005;stroke-linecap:butt;stroke-linejoin:miter;stroke-miterlimit:4;stroke-dasharray:none;stroke-dashoffset:0;stroke-opacity:1" /><path
       inkscape:connector-curvature="0"
       id="path942"
       d="M 71.2,24 C 70.75759,24 70.400528,23.640257 70.400528,23.198946 70.400528,22.756836 70.75759,22.4 71.2,22.4 h 1.598946 c 0.442412,0 0.801582,0.356836 0.801582,0.798946 0,0.441311 -0.35917,0.801054 -0.801582,0.801054 z"
       style="opacity:0.98999999;vector-effect:none;fill:#ff0000;fill-opacity:1;stroke:none;stroke-width:3.19999981;stroke-linecap:butt;stroke-linejoin:miter;stroke-miterlimit:4;stroke-dasharray:none;stroke-dashoffset:0;stroke-opacity:1" /><path
       inkscape:connector-curvature="0"
       id="path944"
       d="m 63.501121,27.999999 c -0.165604,0 -0.300593,-0.134993 -0.300593,-0.300594 V 25.599998 H 61.10112 c -0.165604,0 -0.300592,-0.134991 -0.300592,-0.300592 V 23.49901 c 0,-0.165601 0.134988,-0.299011 0.300592,-0.299011 h 2.099408 v -2.100988 c 0,-0.165602 0.134989,-0.299012 0.300593,-0.299012 h 1.798814 c 0.165604,0 0.300593,0.13341 0.300593,0.299012 v 2.100988 h 2.100989 c 0.165605,0 0.299011,0.13341 0.299011,0.299011 v 1.800396 c 10e-7,0.165601 -0.133406,0.300592 -0.299011,0.300592 h -2.100989 v 2.099407 c 0,0.165601 -0.134989,0.300594 -0.300593,0.300594 z"
       style="opacity:0.98999999;vector-effect:none;fill:#800000;fill-opacity:1;stroke:none;stroke-width:3.20000005;stroke-linecap:butt;stroke-linejoin:miter;stroke-miterlimit:4;stroke-dasharray:none;stroke-dashoffset:0;stroke-opacity:1" /><path
       d="m 65.600528,24.4 c 0,-0.6632 -0.536801,-1.2 -1.200002,-1.2 -0.663198,0 -1.199998,0.5368 -1.199998,1.2 0,0.6632 0.5368,1.2 1.199998,1.2 0.663201,0 1.200002,-0.5368 1.200002,-1.2"
       style="fill:#ff0000;fill-opacity:1;fill-rule:nonzero;stroke:none;stroke-width:0.79999202"
       id="path946"
       inkscape:connector-curvature="0" /><path
       d="m 66.400528,32 v 0.29155 c 0,0.168293 -0.140444,0.309327 -0.308741,0.301031 C 63.884972,32.47762 61.87075,31.685932 60.292676,30.3467 60.029565,30.123297 59.88201,29.79323 59.88201,29.447755 V 29.13428 C 61.506898,30.891282 63.823935,32 66.400528,32"
       style="fill:#ff0000;fill-opacity:1;fill-rule:nonzero;stroke:none;stroke-width:0.79999191"
       id="path948"
       inkscape:connector-curvature="0" /><path
       d="m 70.400528,32 h -3.2 v 0.29629 c 0,0.163553 0.119467,0.296291 0.266667,0.296291 h 2.666667 c 0.147199,0 0.266666,-0.132738 0.266666,-0.296291 z"
       style="fill:#ff0000;fill-opacity:1;fill-rule:nonzero;stroke:none;stroke-width:0.79999191"
       id="path950"
       inkscape:connector-curvature="0" /><path
       sodipodi:nodetypes="ccccc"
       inkscape:connector-curvature="0"
       id="path952"
       d="m 78.400528,20.799999 c -1.325564,-8e-5 -2.400081,-1.074597 -2.4,-2.4 -8.1e-5,-1.325402 1.074436,-2.399919 2.4,-2.4 1.325564,8.1e-5 2.400082,1.074598 2.4,2.4 8.2e-5,1.325403 -1.074436,2.39992 -2.4,2.4 z"
       style="opacity:0.98999999;vector-effect:none;fill:#800000;fill-opacity:1;stroke:none;stroke-width:3.20000005;stroke-linecap:butt;stroke-linejoin:miter;stroke-miterlimit:4;stroke-dasharray:none;stroke-dashoffset:0;stroke-opacity:1" /><path
       inkscape:connector-curvature="0"
       id="path954"
       d="m 78.400528,19.999999 c -0.88356,0 -1.6,-0.716773 -1.6,-1.600703 0,-0.883932 0.71644,-1.599297 1.6,-1.599297 0.883562,0 1.6,0.715366 1.6,1.599297 0,0.883931 -0.716438,1.600703 -1.6,1.600703 z"
       style="opacity:0.98999999;vector-effect:none;fill:#ff0000;fill-opacity:1;stroke:none;stroke-width:3.20000005;stroke-linecap:butt;stroke-linejoin:miter;stroke-miterlimit:4;stroke-dasharray:none;stroke-dashoffset:0;stroke-opacity:1" /><path
       style="opacity:0.98999999;vector-effect:none;fill:#800000;fill-opacity:1;stroke:none;stroke-width:3.20000005;stroke-linecap:butt;stroke-linejoin:miter;stroke-miterlimit:4;stroke-dasharray:none;stroke-dashoffset:0;stroke-opacity:1"
       d="m 70.400528,20.799999 c -1.325564,-8e-5 -2.400081,-1.074597 -2.4,-2.4 -8.1e-5,-1.325402 1.074436,-2.399919 2.4,-2.4 1.325564,8.1e-5 2.400082,1.074598 2.4,2.4 8.2e-5,1.325403 -1.074436,2.39992 -2.4,2.4 z"
       id="path956"
       inkscape:connector-curvature="0"
       sodipodi:nodetypes="ccccc" /><path
       style="opacity:0.98999999;vector-effect:none;fill:#ff0000;fill-opacity:1;stroke:none;stroke-width:3.20000005;stroke-linecap:butt;stroke-linejoin:miter;stroke-miterlimit:4;stroke-dasharray:none;stroke-dashoffset:0;stroke-opacity:1"
       d="m 70.400528,19.999999 c -0.88356,0 -1.6,-0.716773 -1.6,-1.600703 0,-0.883932 0.71644,-1.599297 1.6,-1.599297 0.883562,0 1.6,0.715366 1.6,1.599297 0,0.883931 -0.716438,1.600703 -1.6,1.600703 z"
       id="path958"
       inkscape:connector-curvature="0" /><path
       inkscape:connector-curvature="0"
       id="path960"
       style="fill:#ff0000;fill-opacity:1;fill-rule:nonzero;stroke:none;stroke-width:0.79999191"
       d="m 82.400528,32 v 0.29155 c 0,0.168293 0.140444,0.309327 0.308741,0.301031 2.206815,-0.114961 4.221037,-0.906649 5.799111,-2.245881 0.263111,-0.223403 0.410666,-0.55347 0.410666,-0.898945 V 29.13428 C 87.294158,30.891282 84.977121,32 82.400528,32" /><path
       inkscape:connector-curvature="0"
       id="path962"
       style="fill:#ff0000;fill-opacity:1;fill-rule:nonzero;stroke:none;stroke-width:0.79999191"
       d="m 78.400528,32 h 3.2 v 0.29629 c 0,0.163553 -0.119467,0.296291 -0.266667,0.296291 h -2.666667 c -0.147199,0 -0.266666,-0.132738 -0.266666,-0.296291 z" /></g></svg>
